<?xml version="1.0" standalone="no"?>
<!DOCTYPE svg PUBLIC "-//W3C//DTD SVG 20010904//EN"
 "http://www.w3.org/TR/2001/REC-SVG-20010904/DTD/svg10.dtd">
<svg version="1.0" xmlns="http://www.w3.org/2000/svg"
 width="200.000000pt" height="200.000000pt" viewBox="0 0 200.000000 200.000000"
 preserveAspectRatio="xMidYMid meet">

<g transform="translate(0.000000,200.000000) scale(0.100000,-0.100000)"
fill="#000000" stroke="none">
<path d="M533 1263 c-16 -21 -36 -50 -45 -64 -13 -20 -28 -28 -66 -33 -70 -9
-142 -49 -201 -111 -43 -45 -50 -58 -42 -73 11 -21 113 -102 128 -102 15 0 61
52 72 83 6 16 11 49 12 75 1 65 17 25 18 -44 1 -36 -6 -65 -23 -97 -27 -50
-25 -57 13 -57 20 0 35 -13 64 -51 20 -29 37 -58 37 -65 0 -23 16 -16 28 11
18 39 15 66 -8 72 -11 3 -20 9 -20 14 0 11 29 17 105 22 59 4 61 3 97 -34 53
-54 64 -51 60 16 -3 46 -7 55 -23 55 -28 0 -23 28 7 42 22 10 35 7 107 -29 45
-23 94 -45 110 -48 l27 -7 -35 52 c-44 66 -48 131 -11 203 13 26 20 47 16 47
-4 0 -43 -23 -86 -52 -79 -52 -99 -57 -151 -37 -26 10 -21 37 9 48 18 7 17 11
-20 57 -44 56 -132 144 -143 144 -4 0 -20 -17 -36 -37z m-225 -215 c32 -32 -8
-80 -48 -58 -34 18 -19 70 20 70 9 0 21 -5 28 -12z"/>
<path d="M1198 1114 c-80 -43 -79 -187 2 -229 62 -32 139 -4 166 60 18 45 18
69 -3 112 -30 64 -105 90 -165 57z m101 -18 c49 -26 66 -98 36 -156 -49 -95
-175 -48 -175 65 0 29 8 45 34 71 37 37 62 42 105 20z"/>
<path d="M1430 1000 c0 -80 4 -130 10 -130 6 0 10 17 10 38 0 29 7 45 28 65
l28 27 48 -65 c41 -56 66 -79 66 -60 0 3 -23 36 -50 72 -56 74 -58 62 19 146
19 20 29 37 22 37 -7 0 -46 -35 -86 -77 l-74 -78 -1 78 c0 44 -4 77 -10 77 -6
0 -10 -50 -10 -130z"/>
<path d="M1660 1050 c0 -123 34 -180 107 -180 84 0 113 45 113 174 0 47 -4 86
-9 86 -5 0 -10 -40 -13 -89 -6 -123 -38 -166 -113 -147 -40 10 -56 46 -62 145
-3 50 -10 91 -14 91 -5 0 -9 -36 -9 -80z"/>
</g>
</svg>
